<?xml version="1.0" standalone="no"?>
<svg xmlns="http://www.w3.org/2000/svg" width="1000" height="1300" viewBox="0 0 1000 1300"><defs><clipPath id="clip-path-dot-color"><rect x="162" y="406" width="27" height="27" transform="rotate(0,175.5,419.5)"/><rect x="162" y="595" width="27" height="27" transform="rotate(0,175.5,608.5)"/><rect x="189" y="379" width="27" height="27" transform="rotate(0,202.5,392.5)"/><rect x="189" y="406" width="27" height="27" transform="rotate(0,202.5,419.5)"/><rect x="189" y="487" width="27" height="27" transform="rotate(0,202.5,500.5)"/><rect x="189" y="514" width="27" height="27" transform="rotate(0,202.5,527.5)"/><rect x="189" y="568" width="27" height="27" transform="rotate(0,202.5,581.5)"/><rect x="216" y="406" width="27" height="27" transform="rotate(0,229.5,419.5)"/><rect x="216" y="433" width="27" height="27" transform="rotate(0,229.5,446.5)"/><rect x="216" y="460" width="27" height="27" transform="rotate(0,229.5,473.5)"/><rect x="216" y="487" width="27" height="27" transform="rotate(0,229.5,500.5)"/><rect x="216" y="541" width="27" height="27" transform="rotate(0,229.5,554.5)"/><rect x="216" y="595" width="27" height="27" transform="rotate(0,229.5,608.5)"/><rect x="243" y="379" width="27" height="27" transform="rotate(0,256.5,392.5)"/><rect x="243" y="406" width="27" height="27" transform="rotate(0,256.5,419.5)"/><rect x="243" y="433" width="27" height="27" transform="rotate(0,256.5,446.5)"/><rect x="243" y="460" width="27" height="27" transform="rotate(0,256.5,473.5)"/><rect x="243" y="514" width="27" height="27" transform="rotate(0,256.5,527.5)"/><rect x="243" y="541" width="27" height="27" transform="rotate(0,256.5,554.5)"/><rect x="270" y="406" width="27" height="27" transform="rotate(0,283.5,419.5)"/><rect x="270" y="460" width="27" height="27" transform="rotate(0,283.5,473.5)"/><rect x="270" y="514" width="27" height="27" transform="rotate(0,283.5,527.5)"/><rect x="297" y="379" width="27" height="27" transform="rotate(0,310.5,392.5)"/><rect x="297" y="406" width="27" height="27" transform="rotate(0,310.5,419.5)"/><rect x="297" y="514" width="27" height="27" transform="rotate(0,310.5,527.5)"/><rect x="297" y="541" width="27" height="27" transform="rotate(0,310.5,554.5)"/><rect x="297" y="568" width="27" height="27" transform="rotate(0,310.5,581.5)"/><rect x="297" y="595" width="27" height="27" transform="rotate(0,310.5,608.5)"/><rect x="324" y="379" width="27" height="27" transform="rotate(0,337.5,392.5)"/><rect x="324" y="433" width="27" height="27" transform="rotate(0,337.5,446.5)"/><rect x="324" y="487" width="27" height="27" transform="rotate(0,337.5,500.5)"/><rect x="324" y="541" width="27" height="27" transform="rotate(0,337.5,554.5)"/><rect x="324" y="595" width="27" height="27" transform="rotate(0,337.5,608.5)"/><rect x="351" y="406" width="27" height="27" transform="rotate(0,364.5,419.5)"/><rect x="351" y="433" width="27" height="27" transform="rotate(0,364.5,446.5)"/><rect x="351" y="487" width="27" height="27" transform="rotate(0,364.5,500.5)"/><rect x="351" y="541" width="27" height="27" transform="rotate(0,364.5,554.5)"/><rect x="351" y="568" width="27" height="27" transform="rotate(0,364.5,581.5)"/><rect x="378" y="163" width="27" height="27" transform="rotate(0,391.5,176.5)"/><rect x="378" y="190" width="27" height="27" transform="rotate(0,391.5,203.5)"/><rect x="378" y="217" width="27" height="27" transform="rotate(0,391.5,230.5)"/><rect x="378" y="244" width="27" height="27" transform="rotate(0,391.5,257.5)"/><rect x="378" y="271" width="27" height="27" transform="rotate(0,391.5,284.5)"/><rect x="378" y="325" width="27" height="27" transform="rotate(0,391.5,338.5)"/><rect x="378" y="352" width="27" height="27" transform="rotate(0,391.5,365.5)"/><rect x="378" y="379" width="27" height="27" transform="rotate(0,391.5,392.5)"/><rect x="378" y="406" width="27" height="27" transform="rotate(0,391.5,419.5)"/><rect x="378" y="487" width="27" height="27" transform="rotate(0,391.5,500.5)"/><rect x="378" y="514" width="27" height="27" transform="rotate(0,391.5,527.5)"/><rect x="378" y="541" width="27" height="27" transform="rotate(0,391.5,554.5)"/><rect x="378" y="595" width="27" height="27" transform="rotate(0,391.5,608.5)"/><rect x="378" y="622" width="27" height="27" transform="rotate(0,391.5,635.5)"/><rect x="378" y="676" width="27" height="27" transform="rotate(0,391.5,689.5)"/><rect x="378" y="730" width="27" height="27" transform="rotate(0,391.5,743.5)"/><rect x="378" y="784" width="27" height="27" transform="rotate(0,391.5,797.5)"/><rect x="405" y="163" width="27" height="27" transform="rotate(0,418.5,176.5)"/><rect x="405" y="217" width="27" height="27" transform="rotate(0,418.5,230.5)"/><rect x="405" y="271" width="27" height="27" transform="rotate(0,418.5,284.5)"/><rect x="405" y="379" width="27" height="27" transform="rotate(0,418.5,392.5)"/><rect x="405" y="514" width="27" height="27" transform="rotate(0,418.5,527.5)"/><rect x="405" y="595" width="27" height="27" transform="rotate(0,418.5,608.5)"/><rect x="405" y="622" width="27" height="27" transform="rotate(0,418.5,635.5)"/><rect x="405" y="676" width="27" height="27" transform="rotate(0,418.5,689.5)"/><rect x="405" y="784" width="27" height="27" transform="rotate(0,418.5,797.5)"/><rect x="432" y="244" width="27" height="27" transform="rotate(0,445.5,257.5)"/><rect x="432" y="325" width="27" height="27" transform="rotate(0,445.5,338.5)"/><rect x="432" y="379" width="27" height="27" transform="rotate(0,445.5,392.5)"/><rect x="432" y="433" width="27" height="27" transform="rotate(0,445.5,446.5)"/><rect x="432" y="541" width="27" height="27" transform="rotate(0,445.5,554.5)"/><rect x="432" y="568" width="27" height="27" transform="rotate(0,445.5,581.5)"/><rect x="432" y="622" width="27" height="27" transform="rotate(0,445.5,635.5)"/><rect x="432" y="649" width="27" height="27" transform="rotate(0,445.5,662.5)"/><rect x="432" y="676" width="27" height="27" transform="rotate(0,445.5,689.5)"/><rect x="432" y="703" width="27" height="27" transform="rotate(0,445.5,716.5)"/><rect x="432" y="730" width="27" height="27" transform="rotate(0,445.5,743.5)"/><rect x="432" y="784" width="27" height="27" transform="rotate(0,445.5,797.5)"/><rect x="432" y="811" width="27" height="27" transform="rotate(0,445.5,824.5)"/><rect x="459" y="190" width="27" height="27" transform="rotate(0,472.5,203.5)"/><rect x="459" y="298" width="27" height="27" transform="rotate(0,472.5,311.5)"/><rect x="459" y="460" width="27" height="27" transform="rotate(0,472.5,473.5)"/><rect x="459" y="487" width="27" height="27" transform="rotate(0,472.5,500.5)"/><rect x="459" y="541" width="27" height="27" transform="rotate(0,472.5,554.5)"/><rect x="459" y="595" width="27" height="27" transform="rotate(0,472.5,608.5)"/><rect x="459" y="622" width="27" height="27" transform="rotate(0,472.5,635.5)"/><rect x="459" y="676" width="27" height="27" transform="rotate(0,472.5,689.5)"/><rect x="459" y="811" width="27" height="27" transform="rotate(0,472.5,824.5)"/><rect x="486" y="163" width="27" height="27" transform="rotate(0,499.5,176.5)"/><rect x="486" y="217" width="27" height="27" transform="rotate(0,499.5,230.5)"/><rect x="486" y="298" width="27" height="27" transform="rotate(0,499.5,311.5)"/><rect x="486" y="325" width="27" height="27" transform="rotate(0,499.5,338.5)"/><rect x="486" y="352" width="27" height="27" transform="rotate(0,499.5,365.5)"/><rect x="486" y="379" width="27" height="27" transform="rotate(0,499.5,392.5)"/><rect x="486" y="406" width="27" height="27" transform="rotate(0,499.5,419.5)"/><rect x="486" y="433" width="27" height="27" transform="rotate(0,499.5,446.5)"/><rect x="486" y="514" width="27" height="27" transform="rotate(0,499.5,527.5)"/><rect x="486" y="568" width="27" height="27" transform="rotate(0,499.5,581.5)"/><rect x="486" y="622" width="27" height="27" transform="rotate(0,499.5,635.5)"/><rect x="486" y="649" width="27" height="27" transform="rotate(0,499.5,662.5)"/><rect x="486" y="676" width="27" height="27" transform="rotate(0,499.5,689.5)"/><rect x="486" y="703" width="27" height="27" transform="rotate(0,499.5,716.5)"/><rect x="486" y="757" width="27" height="27" transform="rotate(0,499.5,770.5)"/><rect x="486" y="784" width="27" height="27" transform="rotate(0,499.5,797.5)"/><rect x="486" y="811" width="27" height="27" transform="rotate(0,499.5,824.5)"/><rect x="513" y="163" width="27" height="27" transform="rotate(0,526.5,176.5)"/><rect x="513" y="190" width="27" height="27" transform="rotate(0,526.5,203.5)"/><rect x="513" y="217" width="27" height="27" transform="rotate(0,526.5,230.5)"/><rect x="513" y="271" width="27" height="27" transform="rotate(0,526.5,284.5)"/><rect x="513" y="379" width="27" height="27" transform="rotate(0,526.5,392.5)"/><rect x="513" y="406" width="27" height="27" transform="rotate(0,526.5,419.5)"/><rect x="513" y="460" width="27" height="27" transform="rotate(0,526.5,473.5)"/><rect x="513" y="487" width="27" height="27" transform="rotate(0,526.5,500.5)"/><rect x="513" y="514" width="27" height="27" transform="rotate(0,526.5,527.5)"/><rect x="513" y="595" width="27" height="27" transform="rotate(0,526.5,608.5)"/><rect x="513" y="622" width="27" height="27" transform="rotate(0,526.5,635.5)"/><rect x="513" y="676" width="27" height="27" transform="rotate(0,526.5,689.5)"/><rect x="513" y="730" width="27" height="27" transform="rotate(0,526.5,743.5)"/><rect x="513" y="784" width="27" height="27" transform="rotate(0,526.5,797.5)"/><rect x="540" y="163" width="27" height="27" transform="rotate(0,553.5,176.5)"/><rect x="540" y="217" width="27" height="27" transform="rotate(0,553.5,230.5)"/><rect x="540" y="244" width="27" height="27" transform="rotate(0,553.5,257.5)"/><rect x="540" y="298" width="27" height="27" transform="rotate(0,553.5,311.5)"/><rect x="540" y="325" width="27" height="27" transform="rotate(0,553.5,338.5)"/><rect x="540" y="406" width="27" height="27" transform="rotate(0,553.5,419.5)"/><rect x="540" y="433" width="27" height="27" transform="rotate(0,553.5,446.5)"/><rect x="540" y="514" width="27" height="27" transform="rotate(0,553.5,527.5)"/><rect x="540" y="541" width="27" height="27" transform="rotate(0,553.5,554.5)"/><rect x="540" y="568" width="27" height="27" transform="rotate(0,553.5,581.5)"/><rect x="540" y="622" width="27" height="27" transform="rotate(0,553.5,635.5)"/><rect x="540" y="649" width="27" height="27" transform="rotate(0,553.5,662.5)"/><rect x="540" y="676" width="27" height="27" transform="rotate(0,553.5,689.5)"/><rect x="540" y="703" width="27" height="27" transform="rotate(0,553.5,716.5)"/><rect x="540" y="730" width="27" height="27" transform="rotate(0,553.5,743.5)"/><rect x="540" y="784" width="27" height="27" transform="rotate(0,553.5,797.5)"/><rect x="540" y="811" width="27" height="27" transform="rotate(0,553.5,824.5)"/><rect x="567" y="163" width="27" height="27" transform="rotate(0,580.5,176.5)"/><rect x="567" y="217" width="27" height="27" transform="rotate(0,580.5,230.5)"/><rect x="567" y="298" width="27" height="27" transform="rotate(0,580.5,311.5)"/><rect x="567" y="379" width="27" height="27" transform="rotate(0,580.5,392.5)"/><rect x="567" y="406" width="27" height="27" transform="rotate(0,580.5,419.5)"/><rect x="567" y="460" width="27" height="27" transform="rotate(0,580.5,473.5)"/><rect x="567" y="487" width="27" height="27" transform="rotate(0,580.5,500.5)"/><rect x="567" y="541" width="27" height="27" transform="rotate(0,580.5,554.5)"/><rect x="567" y="622" width="27" height="27" transform="rotate(0,580.5,635.5)"/><rect x="567" y="676" width="27" height="27" transform="rotate(0,580.5,689.5)"/><rect x="567" y="703" width="27" height="27" transform="rotate(0,580.5,716.5)"/><rect x="567" y="811" width="27" height="27" transform="rotate(0,580.5,824.5)"/><rect x="594" y="163" width="27" height="27" transform="rotate(0,607.5,176.5)"/><rect x="594" y="244" width="27" height="27" transform="rotate(0,607.5,257.5)"/><rect x="594" y="271" width="27" height="27" transform="rotate(0,607.5,284.5)"/><rect x="594" y="325" width="27" height="27" transform="rotate(0,607.5,338.5)"/><rect x="594" y="379" width="27" height="27" transform="rotate(0,607.5,392.5)"/><rect x="594" y="406" width="27" height="27" transform="rotate(0,607.5,419.5)"/><rect x="594" y="487" width="27" height="27" transform="rotate(0,607.5,500.5)"/><rect x="594" y="514" width="27" height="27" transform="rotate(0,607.5,527.5)"/><rect x="594" y="541" width="27" height="27" transform="rotate(0,607.5,554.5)"/><rect x="594" y="568" width="27" height="27" transform="rotate(0,607.5,581.5)"/><rect x="594" y="595" width="27" height="27" transform="rotate(0,607.5,608.5)"/><rect x="594" y="622" width="27" height="27" transform="rotate(0,607.5,635.5)"/><rect x="594" y="649" width="27" height="27" transform="rotate(0,607.5,662.5)"/><rect x="594" y="676" width="27" height="27" transform="rotate(0,607.5,689.5)"/><rect x="594" y="703" width="27" height="27" transform="rotate(0,607.5,716.5)"/><rect x="594" y="757" width="27" height="27" transform="rotate(0,607.5,770.5)"/><rect x="621" y="379" width="27" height="27" transform="rotate(0,634.5,392.5)"/><rect x="621" y="406" width="27" height="27" transform="rotate(0,634.5,419.5)"/><rect x="621" y="433" width="27" height="27" transform="rotate(0,634.5,446.5)"/><rect x="621" y="514" width="27" height="27" transform="rotate(0,634.5,527.5)"/><rect x="621" y="595" width="27" height="27" transform="rotate(0,634.5,608.5)"/><rect x="621" y="703" width="27" height="27" transform="rotate(0,634.5,716.5)"/><rect x="621" y="730" width="27" height="27" transform="rotate(0,634.5,743.5)"/><rect x="648" y="379" width="27" height="27" transform="rotate(0,661.5,392.5)"/><rect x="648" y="487" width="27" height="27" transform="rotate(0,661.5,500.5)"/><rect x="648" y="514" width="27" height="27" transform="rotate(0,661.5,527.5)"/><rect x="648" y="541" width="27" height="27" transform="rotate(0,661.5,554.5)"/><rect x="648" y="595" width="27" height="27" transform="rotate(0,661.5,608.5)"/><rect x="648" y="649" width="27" height="27" transform="rotate(0,661.5,662.5)"/><rect x="648" y="703" width="27" height="27" transform="rotate(0,661.5,716.5)"/><rect x="648" y="757" width="27" height="27" transform="rotate(0,661.5,770.5)"/><rect x="648" y="784" width="27" height="27" transform="rotate(0,661.5,797.5)"/><rect x="648" y="811" width="27" height="27" transform="rotate(0,661.5,824.5)"/><rect x="675" y="406" width="27" height="27" transform="rotate(0,688.5,419.5)"/><rect x="675" y="460" width="27" height="27" transform="rotate(0,688.5,473.5)"/><rect x="675" y="487" width="27" height="27" transform="rotate(0,688.5,500.5)"/><rect x="675" y="595" width="27" height="27" transform="rotate(0,688.5,608.5)"/><rect x="675" y="703" width="27" height="27" transform="rotate(0,688.5,716.5)"/><rect x="675" y="730" width="27" height="27" transform="rotate(0,688.5,743.5)"/><rect x="675" y="784" width="27" height="27" transform="rotate(0,688.5,797.5)"/><rect x="702" y="379" width="27" height="27" transform="rotate(0,715.5,392.5)"/><rect x="702" y="406" width="27" height="27" transform="rotate(0,715.5,419.5)"/><rect x="702" y="433" width="27" height="27" transform="rotate(0,715.5,446.5)"/><rect x="702" y="514" width="27" height="27" transform="rotate(0,715.5,527.5)"/><rect x="702" y="541" width="27" height="27" transform="rotate(0,715.5,554.5)"/><rect x="702" y="568" width="27" height="27" transform="rotate(0,715.5,581.5)"/><rect x="702" y="595" width="27" height="27" transform="rotate(0,715.5,608.5)"/><rect x="702" y="622" width="27" height="27" transform="rotate(0,715.5,635.5)"/><rect x="702" y="649" width="27" height="27" transform="rotate(0,715.5,662.5)"/><rect x="702" y="676" width="27" height="27" transform="rotate(0,715.5,689.5)"/><rect x="702" y="703" width="27" height="27" transform="rotate(0,715.5,716.5)"/><rect x="702" y="757" width="27" height="27" transform="rotate(0,715.5,770.5)"/><rect x="702" y="784" width="27" height="27" transform="rotate(0,715.5,797.5)"/><rect x="729" y="379" width="27" height="27" transform="rotate(0,742.5,392.5)"/><rect x="729" y="433" width="27" height="27" transform="rotate(0,742.5,446.5)"/><rect x="729" y="460" width="27" height="27" transform="rotate(0,742.5,473.5)"/><rect x="729" y="514" width="27" height="27" transform="rotate(0,742.5,527.5)"/><rect x="729" y="649" width="27" height="27" transform="rotate(0,742.5,662.5)"/><rect x="729" y="703" width="27" height="27" transform="rotate(0,742.5,716.5)"/><rect x="729" y="730" width="27" height="27" transform="rotate(0,742.5,743.5)"/><rect x="729" y="757" width="27" height="27" transform="rotate(0,742.5,770.5)"/><rect x="729" y="784" width="27" height="27" transform="rotate(0,742.5,797.5)"/><rect x="729" y="811" width="27" height="27" transform="rotate(0,742.5,824.5)"/><rect x="756" y="379" width="27" height="27" transform="rotate(0,769.5,392.5)"/><rect x="756" y="514" width="27" height="27" transform="rotate(0,769.5,527.5)"/><rect x="756" y="541" width="27" height="27" transform="rotate(0,769.5,554.5)"/><rect x="756" y="568" width="27" height="27" transform="rotate(0,769.5,581.5)"/><rect x="756" y="730" width="27" height="27" transform="rotate(0,769.5,743.5)"/><rect x="756" y="757" width="27" height="27" transform="rotate(0,769.5,770.5)"/><rect x="756" y="811" width="27" height="27" transform="rotate(0,769.5,824.5)"/><rect x="783" y="379" width="27" height="27" transform="rotate(0,796.5,392.5)"/><rect x="783" y="433" width="27" height="27" transform="rotate(0,796.5,446.5)"/><rect x="783" y="595" width="27" height="27" transform="rotate(0,796.5,608.5)"/><rect x="783" y="622" width="27" height="27" transform="rotate(0,796.5,635.5)"/><rect x="783" y="676" width="27" height="27" transform="rotate(0,796.5,689.5)"/><rect x="783" y="703" width="27" height="27" transform="rotate(0,796.5,716.5)"/><rect x="783" y="730" width="27" height="27" transform="rotate(0,796.5,743.5)"/><rect x="783" y="811" width="27" height="27" transform="rotate(0,796.5,824.5)"/><rect x="810" y="379" width="27" height="27" transform="rotate(0,823.5,392.5)"/><rect x="810" y="406" width="27" height="27" transform="rotate(0,823.5,419.5)"/><rect x="810" y="433" width="27" height="27" transform="rotate(0,823.5,446.5)"/><rect x="810" y="514" width="27" height="27" transform="rotate(0,823.5,527.5)"/><rect x="810" y="541" width="27" height="27" transform="rotate(0,823.5,554.5)"/><rect x="810" y="676" width="27" height="27" transform="rotate(0,823.5,689.5)"/><rect x="810" y="703" width="27" height="27" transform="rotate(0,823.5,716.5)"/><rect x="810" y="730" width="27" height="27" transform="rotate(0,823.5,743.5)"/><rect x="810" y="757" width="27" height="27" transform="rotate(0,823.5,770.5)"/><rect x="810" y="784" width="27" height="27" transform="rotate(0,823.5,797.5)"/><rect x="810" y="811" width="27" height="27" transform="rotate(0,823.5,824.5)"/></clipPath><clipPath id="clip-path-corners-square-color-0-0"><rect x="162" y="163" width="27" height="27" transform="rotate(0,175.5,176.5)"/><rect x="162" y="190" width="27" height="27" transform="rotate(0,175.5,203.5)"/><rect x="162" y="217" width="27" height="27" transform="rotate(0,175.5,230.5)"/><rect x="162" y="244" width="27" height="27" transform="rotate(0,175.5,257.5)"/><rect x="162" y="271" width="27" height="27" transform="rotate(0,175.5,284.5)"/><rect x="162" y="298" width="27" height="27" transform="rotate(0,175.5,311.5)"/><rect x="162" y="325" width="27" height="27" transform="rotate(0,175.5,338.5)"/><rect x="189" y="163" width="27" height="27" transform="rotate(0,202.5,176.5)"/><rect x="189" y="325" width="27" height="27" transform="rotate(0,202.5,338.5)"/><rect x="216" y="163" width="27" height="27" transform="rotate(0,229.5,176.5)"/><rect x="216" y="325" width="27" height="27" transform="rotate(0,229.5,338.5)"/><rect x="243" y="163" width="27" height="27" transform="rotate(0,256.5,176.5)"/><rect x="243" y="325" width="27" height="27" transform="rotate(0,256.5,338.5)"/><rect x="270" y="163" width="27" height="27" transform="rotate(0,283.5,176.5)"/><rect x="270" y="325" width="27" height="27" transform="rotate(0,283.5,338.5)"/><rect x="297" y="163" width="27" height="27" transform="rotate(0,310.5,176.5)"/><rect x="297" y="325" width="27" height="27" transform="rotate(0,310.5,338.5)"/><rect x="324" y="163" width="27" height="27" transform="rotate(0,337.5,176.5)"/><rect x="324" y="190" width="27" height="27" transform="rotate(0,337.5,203.5)"/><rect x="324" y="217" width="27" height="27" transform="rotate(0,337.5,230.5)"/><rect x="324" y="244" width="27" height="27" transform="rotate(0,337.5,257.5)"/><rect x="324" y="271" width="27" height="27" transform="rotate(0,337.5,284.5)"/><rect x="324" y="298" width="27" height="27" transform="rotate(0,337.5,311.5)"/><rect x="324" y="325" width="27" height="27" transform="rotate(0,337.5,338.5)"/></clipPath><clipPath id="clip-path-corners-dot-color-0-0"><rect x="216" y="217" width="27" height="27" transform="rotate(0,229.5,230.5)"/><rect x="216" y="244" width="27" height="27" transform="rotate(0,229.5,257.5)"/><rect x="216" y="271" width="27" height="27" transform="rotate(0,229.5,284.5)"/><rect x="243" y="217" width="27" height="27" transform="rotate(0,256.5,230.5)"/><rect x="243" y="244" width="27" height="27" transform="rotate(0,256.5,257.5)"/><rect x="243" y="271" width="27" height="27" transform="rotate(0,256.5,284.5)"/><rect x="270" y="217" width="27" height="27" transform="rotate(0,283.5,230.5)"/><rect x="270" y="244" width="27" height="27" transform="rotate(0,283.5,257.5)"/><rect x="270" y="271" width="27" height="27" transform="rotate(0,283.5,284.5)"/></clipPath><clipPath id="clip-path-corners-square-color-1-0"><rect x="648" y="163" width="27" height="27" transform="rotate(0,661.5,176.5)"/><rect x="648" y="190" width="27" height="27" transform="rotate(0,661.5,203.5)"/><rect x="648" y="217" width="27" height="27" transform="rotate(0,661.5,230.5)"/><rect x="648" y="244" width="27" height="27" transform="rotate(0,661.5,257.5)"/><rect x="648" y="271" width="27" height="27" transform="rotate(0,661.5,284.5)"/><rect x="648" y="298" width="27" height="27" transform="rotate(0,661.5,311.5)"/><rect x="648" y="325" width="27" height="27" transform="rotate(0,661.5,338.5)"/><rect x="675" y="163" width="27" height="27" transform="rotate(0,688.5,176.5)"/><rect x="675" y="325" width="27" height="27" transform="rotate(0,688.5,338.5)"/><rect x="702" y="163" width="27" height="27" transform="rotate(0,715.5,176.5)"/><rect x="702" y="325" width="27" height="27" transform="rotate(0,715.5,338.5)"/><rect x="729" y="163" width="27" height="27" transform="rotate(0,742.5,176.5)"/><rect x="729" y="325" width="27" height="27" transform="rotate(0,742.5,338.5)"/><rect x="756" y="163" width="27" height="27" transform="rotate(0,769.5,176.5)"/><rect x="756" y="325" width="27" height="27" transform="rotate(0,769.5,338.5)"/><rect x="783" y="163" width="27" height="27" transform="rotate(0,796.5,176.5)"/><rect x="783" y="325" width="27" height="27" transform="rotate(0,796.5,338.5)"/><rect x="810" y="163" width="27" height="27" transform="rotate(0,823.5,176.5)"/><rect x="810" y="190" width="27" height="27" transform="rotate(0,823.5,203.5)"/><rect x="810" y="217" width="27" height="27" transform="rotate(0,823.5,230.5)"/><rect x="810" y="244" width="27" height="27" transform="rotate(0,823.5,257.5)"/><rect x="810" y="271" width="27" height="27" transform="rotate(0,823.5,284.5)"/><rect x="810" y="298" width="27" height="27" transform="rotate(0,823.5,311.5)"/><rect x="810" y="325" width="27" height="27" transform="rotate(0,823.5,338.5)"/></clipPath><clipPath id="clip-path-corners-dot-color-1-0"><rect x="702" y="217" width="27" height="27" transform="rotate(0,715.5,230.5)"/><rect x="702" y="244" width="27" height="27" transform="rotate(0,715.5,257.5)"/><rect x="702" y="271" width="27" height="27" transform="rotate(0,715.5,284.5)"/><rect x="729" y="217" width="27" height="27" transform="rotate(0,742.5,230.5)"/><rect x="729" y="244" width="27" height="27" transform="rotate(0,742.5,257.5)"/><rect x="729" y="271" width="27" height="27" transform="rotate(0,742.5,284.5)"/><rect x="756" y="217" width="27" height="27" transform="rotate(0,769.5,230.5)"/><rect x="756" y="244" width="27" height="27" transform="rotate(0,769.5,257.5)"/><rect x="756" y="271" width="27" height="27" transform="rotate(0,769.5,284.5)"/></clipPath><clipPath id="clip-path-corners-square-color-0-1"><rect x="162" y="649" width="27" height="27" transform="rotate(0,175.5,662.5)"/><rect x="162" y="676" width="27" height="27" transform="rotate(0,175.5,689.5)"/><rect x="162" y="703" width="27" height="27" transform="rotate(0,175.5,716.5)"/><rect x="162" y="730" width="27" height="27" transform="rotate(0,175.5,743.5)"/><rect x="162" y="757" width="27" height="27" transform="rotate(0,175.5,770.5)"/><rect x="162" y="784" width="27" height="27" transform="rotate(0,175.5,797.5)"/><rect x="162" y="811" width="27" height="27" transform="rotate(0,175.5,824.5)"/><rect x="189" y="649" width="27" height="27" transform="rotate(0,202.5,662.5)"/><rect x="189" y="811" width="27" height="27" transform="rotate(0,202.5,824.5)"/><rect x="216" y="649" width="27" height="27" transform="rotate(0,229.5,662.5)"/><rect x="216" y="811" width="27" height="27" transform="rotate(0,229.5,824.5)"/><rect x="243" y="649" width="27" height="27" transform="rotate(0,256.5,662.5)"/><rect x="243" y="811" width="27" height="27" transform="rotate(0,256.5,824.5)"/><rect x="270" y="649" width="27" height="27" transform="rotate(0,283.5,662.5)"/><rect x="270" y="811" width="27" height="27" transform="rotate(0,283.5,824.5)"/><rect x="297" y="649" width="27" height="27" transform="rotate(0,310.5,662.5)"/><rect x="297" y="811" width="27" height="27" transform="rotate(0,310.5,824.5)"/><rect x="324" y="649" width="27" height="27" transform="rotate(0,337.5,662.5)"/><rect x="324" y="676" width="27" height="27" transform="rotate(0,337.5,689.5)"/><rect x="324" y="703" width="27" height="27" transform="rotate(0,337.5,716.5)"/><rect x="324" y="730" width="27" height="27" transform="rotate(0,337.5,743.5)"/><rect x="324" y="757" width="27" height="27" transform="rotate(0,337.5,770.5)"/><rect x="324" y="784" width="27" height="27" transform="rotate(0,337.5,797.5)"/><rect x="324" y="811" width="27" height="27" transform="rotate(0,337.5,824.5)"/></clipPath><clipPath id="clip-path-corners-dot-color-0-1"><rect x="216" y="703" width="27" height="27" transform="rotate(0,229.5,716.5)"/><rect x="216" y="730" width="27" height="27" transform="rotate(0,229.5,743.5)"/><rect x="216" y="757" width="27" height="27" transform="rotate(0,229.5,770.5)"/><rect x="243" y="703" width="27" height="27" transform="rotate(0,256.5,716.5)"/><rect x="243" y="730" width="27" height="27" transform="rotate(0,256.5,743.5)"/><rect x="243" y="757" width="27" height="27" transform="rotate(0,256.5,770.5)"/><rect x="270" y="703" width="27" height="27" transform="rotate(0,283.5,716.5)"/><rect x="270" y="730" width="27" height="27" transform="rotate(0,283.5,743.5)"/><rect x="270" y="757" width="27" height="27" transform="rotate(0,283.5,770.5)"/></clipPath></defs><defs/><text x="50%" y="1080" fill="#00134c" dominant-baseline="middle" text-anchor="middle" font-family="sans-serif" font-size="78" font-weight="600">google website catafest</text><rect x="112" y="112" height="777" width="776" clip-path="url('#clip-path-background-color')" fill="#ffffff"/><rect x="162" y="163" height="675" width="675" clip-path="url('#clip-path-dot-color')" fill="#000000"/><rect x="162" y="163" height="189" width="189" clip-path="url('#clip-path-corners-square-color-0-0')" fill="#000000"/><rect x="216" y="217" height="81" width="81" clip-path="url('#clip-path-corners-dot-color-0-0')" fill="#000000"/><rect x="648" y="163" height="189" width="189" clip-path="url('#clip-path-corners-square-color-1-0')" fill="#000000"/><rect x="702" y="217" height="81" width="81" clip-path="url('#clip-path-corners-dot-color-1-0')" fill="#000000"/><rect x="162" y="649" height="189" width="189" clip-path="url('#clip-path-corners-square-color-0-1')" fill="#000000"/><rect x="216" y="703" height="81" width="81" clip-path="url('#clip-path-corners-dot-color-0-1')" fill="#000000"/></svg>